<svg width="100" height="127" viewBox="0 0 100 127" fill="none" xmlns="http://www.w3.org/2000/svg">
<path d="M97.902 126.887C97.4943 126.884 97.1001 126.741 96.7848 126.483C96.4694 126.224 96.2521 125.866 96.1688 125.467L71.4091 3.54455H28.2881L3.52835 125.467C3.49565 125.707 3.41401 125.938 3.28849 126.145C3.16296 126.353 2.99622 126.532 2.79858 126.672C2.60093 126.813 2.37656 126.911 2.13939 126.961C1.90221 127.012 1.65726 127.013 1.41967 126.964C1.18209 126.916 0.956937 126.82 0.75812 126.681C0.559304 126.542 0.391052 126.364 0.263794 126.158C0.136537 125.951 0.0529738 125.721 0.0182621 125.481C-0.0164497 125.241 -0.00157102 124.997 0.0619878 124.763L25.1214 1.42042C25.2025 1.02024 25.4192 0.660317 25.735 0.401505C26.0508 0.142694 26.4463 0.000879576 26.8546 0H72.8556C73.2623 0.00142444 73.6559 0.143725 73.9696 0.402698C74.2832 0.661671 74.4974 1.02131 74.5757 1.42042L99.6351 124.763C99.7274 125.222 99.6339 125.7 99.375 126.091C99.1161 126.481 98.713 126.754 98.2538 126.848L97.902 126.887Z" fill="#407BFF"/>
</svg>
