<svg width="7" height="4" viewBox="0 0 7 4" fill="none" xmlns="http://www.w3.org/2000/svg">
<path d="M3.85368 3.35678C2.61557 3.32628 1.38493 3.15497 0.185545 2.84619C0.140683 2.83762 0.0994181 2.81579 0.0670832 2.78354C0.0347482 2.75128 0.0128407 2.71008 0.00416179 2.66524C-0.00451712 2.6204 0.000446585 2.57401 0.0184108 2.53202C0.0363751 2.49002 0.0665058 2.45436 0.10493 2.42967C0.575203 2.12063 4.76735 -0.593511 6.36627 0.118616C6.53392 0.19434 6.67764 0.314502 6.78186 0.466088C6.88607 0.617673 6.94681 0.794918 6.95748 0.978562C7.0243 1.2767 7.01235 1.5871 6.92283 1.87923C6.83331 2.17135 6.66928 2.43514 6.44689 2.64466C5.69337 3.18011 4.77499 3.43231 3.85368 3.35678ZM0.830505 2.52373C3.42372 3.06119 5.37199 2.99399 6.12443 2.2953C6.28815 2.13614 6.40858 1.9379 6.4744 1.71927C6.54023 1.50063 6.54928 1.26882 6.50065 1.04573C6.49554 0.940048 6.46151 0.837792 6.40228 0.750126C6.34304 0.662459 6.26088 0.592755 6.16474 0.548589C5.14358 0.0917527 2.3085 1.61006 0.830505 2.52373Z" fill="#407BFF"/>
</svg>
