<svg width="4" height="6" viewBox="0 0 4 6" fill="none" xmlns="http://www.w3.org/2000/svg">
<path d="M0.237662 5.9999H0.118872C0.081944 5.9786 0.0514157 5.94776 0.0305142 5.9106C0.00961273 5.87344 -0.000907092 5.83133 6.13064e-05 5.78871C6.13064e-05 5.63031 7.5056e-05 1.72327 1.47842 0.429722C1.65154 0.263695 1.86094 0.140266 2.09005 0.0692418C2.31916 -0.00178273 2.56169 -0.018447 2.79836 0.0205414C3.03624 0.0185344 3.26746 0.0989433 3.45274 0.248132C3.63802 0.397322 3.76592 0.606078 3.81471 0.838902C4.0919 2.26445 1.7952 5.18153 0.356453 5.9999H0.237662ZM2.56078 0.429722C2.27022 0.431752 1.99146 0.545119 1.78198 0.746496C0.73922 1.67046 0.528028 4.28396 0.462031 5.32672C1.78198 4.37635 3.55073 1.97404 3.32634 0.904884C3.32634 0.73329 3.19435 0.508932 2.71917 0.442934L2.56078 0.429722Z" fill="#407BFF"/>
</svg>
