<svg width="40" height="16" viewBox="0 0 40 16" fill="none" xmlns="http://www.w3.org/2000/svg">
<path d="M17.9892 5.95063e-05H2.81906C2.55799 -0.00268152 2.30478 0.0893542 2.10638 0.259069C1.90798 0.428784 1.77787 0.664653 1.74014 0.922997L0.0112114 12.9473C-0.01968 13.251 0.013437 13.5579 0.108444 13.848C0.203451 14.1381 0.358233 14.4051 0.562792 14.6317C0.767351 14.8583 1.01715 15.0395 1.29606 15.1636C1.57498 15.2877 1.87683 15.352 2.18211 15.3522C7.47281 15.2612 9.98165 14.9492 16.7023 14.9492C20.823 14.9492 29.3116 15.3782 34.9923 15.3782C40.673 15.3782 40.9719 9.76251 38.6061 9.25554C28.0117 6.96766 23.8389 3.83486 20.2771 0.832032C19.6376 0.291646 18.8265 -0.00331337 17.9892 5.95063e-05Z" fill="#263238"/>
</svg>
