<svg width="42" height="16" viewBox="0 0 42 16" fill="none" xmlns="http://www.w3.org/2000/svg">
<path d="M17.9975 0.00023965H2.81629C2.55474 -0.00530739 2.30028 0.0856075 2.10147 0.255666C1.90267 0.425724 1.77344 0.663014 1.73841 0.922271L0.0112004 12.9348C-0.0196606 13.2382 0.0134238 13.5447 0.108338 13.8346C0.203252 14.1244 0.357882 14.3911 0.562239 14.6175C0.766597 14.8439 1.01615 15.0249 1.29479 15.1489C1.57343 15.2729 1.87497 15.3371 2.17995 15.3373C7.46546 15.2464 9.97185 14.9347 16.6859 14.9347C20.7896 14.9347 31.3217 15.3633 36.9968 15.3633C42.6719 15.3633 42.9706 9.7531 40.6071 9.24663C30.023 6.961 23.8155 3.83128 20.2442 0.831395C19.6178 0.296245 18.8214 0.00158584 17.9975 0.00023965Z" fill="#263238"/>
</svg>
