<svg width="100" height="127" viewBox="0 0 100 127" fill="none" xmlns="http://www.w3.org/2000/svg">
<path d="M97.9432 127C97.5345 126.999 97.1387 126.857 96.8226 126.598C96.5065 126.339 96.2896 125.979 96.2085 125.578L71.4267 3.5477H28.2674L3.48566 125.578C3.36755 126.013 3.08844 126.386 2.70499 126.623C2.32153 126.859 1.86245 126.941 1.42094 126.851C0.979436 126.762 0.588589 126.508 0.327703 126.14C0.066818 125.773 -0.0445528 125.32 0.0162162 124.874L25.0849 1.42168C25.1683 1.02227 25.3858 0.663405 25.7014 0.404768C26.017 0.146131 26.4116 0.00330324 26.8196 0H72.8615C73.2701 0.000880359 73.666 0.142821 73.982 0.401862C74.2981 0.660904 74.5151 1.02115 74.5962 1.42168L99.6779 124.874C99.7703 125.334 99.6767 125.812 99.4176 126.203C99.1585 126.594 98.755 126.866 98.2954 126.961L97.9432 127Z" fill="#407BFF"/>
</svg>
