<svg width="63" height="55" viewBox="0 0 63 55" fill="none" xmlns="http://www.w3.org/2000/svg">
<path d="M13.8662 0C13.9963 0.585347 14.2174 1.49589 14.4255 2.26335L15.0499 4.70878C15.4922 6.34776 15.9735 7.98673 16.4808 9.6257C17.4433 12.9297 18.51 16.2206 19.6286 19.5116C20.7473 22.8025 21.892 26.0154 23.1407 29.3454C23.7521 30.9714 24.3634 32.6103 25.0138 34.2363L25.7683 36.1874C25.9191 36.5212 26.1161 36.8321 26.3536 37.111C28.2053 38.9838 30.4613 40.4077 32.9485 41.2735C35.9865 42.4961 39.1186 43.4705 42.3141 44.1872C45.618 44.9547 49.0131 45.592 52.4471 46.1254C55.8811 46.6587 59.4062 47.0879 62.7882 47.4261L62.9053 54.4243C55.4847 55.1918 48.0047 55.1918 40.5841 54.4243C36.7057 54.0245 32.8706 53.2801 29.1243 52.1999C27.0951 51.5874 25.1199 50.8087 23.2188 49.8716C21.0299 48.8079 19.0269 47.3979 17.2873 45.6961C16.2775 44.6908 15.403 43.5582 14.6857 42.3271C14.4906 42.0149 14.3215 41.6637 14.1394 41.3385L13.8012 40.6361L13.2028 39.3353C12.3963 37.6833 11.5899 36.0314 10.8484 34.3534C9.33953 30.9974 7.86968 27.6154 6.5559 24.1683C5.24212 20.7213 3.95434 17.2482 2.86169 13.7622C2.32838 11.9671 1.80808 10.185 1.32679 8.35095L0.611364 5.60632C0.403241 4.61773 0.208123 3.79826 0 2.62756L13.8662 0Z" fill="#E58A7B"/>
</svg>
