<svg width="5" height="6" viewBox="0 0 5 6" fill="none" xmlns="http://www.w3.org/2000/svg">
<path d="M0.235881 5.99032C0.193186 6.00346 0.147518 6.00346 0.104823 5.99032C0.0729875 5.96524 0.0470785 5.93346 0.0289552 5.89722C0.010832 5.86097 0.000959202 5.82115 0 5.78063C0 5.62337 0.327625 1.99328 2.00507 0.538616C2.24006 0.338313 2.5137 0.188421 2.80902 0.098248C3.10433 0.00807506 3.41503 -0.020448 3.72183 0.0144218C4.56055 0.093052 4.79644 0.51242 4.86196 0.840046C5.09785 2.34713 1.92644 5.23023 0.327626 5.95101L0.235881 5.99032ZM3.47283 0.459989C3.04213 0.458136 2.62622 0.617013 2.30646 0.905555C1.07459 1.92775 0.642127 4.37839 0.511076 5.36126C2.22784 4.40459 4.57364 1.94084 4.44259 0.931751C4.44259 0.826911 4.44261 0.538632 3.72183 0.473106L3.47283 0.459989Z" fill="#407BFF"/>
</svg>
