<svg width="7" height="6" viewBox="0 0 7 6" fill="none" xmlns="http://www.w3.org/2000/svg">
<path d="M6.82678 5.21753C5.38434 4.98872 4.01613 4.42316 2.83312 3.56673C1.65011 2.71031 0.685613 1.58712 0.0178241 0.288254C-0.00444363 0.237656 -0.00590732 0.180318 0.0137725 0.128658C0.0334523 0.0769987 0.0726755 0.0351632 0.122964 0.0122058C0.17545 -0.00588853 0.232795 -0.0038068 0.283824 0.0180625C0.334852 0.0399318 0.375918 0.0800177 0.399012 0.130504C1.03096 1.35797 1.94142 2.42051 3.05756 3.23308C4.1737 4.04565 5.46454 4.58569 6.82678 4.81002C6.8814 4.82263 6.92927 4.85532 6.96093 4.90159C6.99258 4.94785 7.0057 5.0043 6.99767 5.05978C6.98786 5.09996 6.96641 5.13636 6.93602 5.16442C6.90562 5.19247 6.86762 5.21095 6.82678 5.21753Z" fill="#263238"/>
</svg>
