<svg width="56" height="59" viewBox="0 0 56 59" fill="none" xmlns="http://www.w3.org/2000/svg">
<path d="M23.4036 4.57128C22.2218 8.46726 20.9491 12.3632 19.8193 16.3631C18.6894 20.363 17.4947 24.259 16.4687 28.2199C15.4428 32.1808 14.4688 36.1027 13.7416 39.9078C13.3909 41.8298 13.0662 43.7388 12.8844 45.531C12.7805 46.4271 12.7286 47.2712 12.7156 48.0504C12.7156 48.2322 12.7156 48.0504 12.5857 47.7517C12.4272 47.3997 12.2073 47.0787 11.9364 46.8037C11.2741 46.2323 11.0274 46.3361 11.326 46.427C11.8698 46.5594 12.4291 46.6162 12.9883 46.5959C14.7366 46.5358 16.4756 46.3141 18.183 45.9336C22.0511 45.0814 25.8633 43.9928 29.5982 42.6739C37.2732 40.0766 45.0652 36.9079 52.6494 33.6742L55.9999 39.7909C48.8046 44.5079 41.2838 48.7088 33.4941 52.3619C29.4606 54.2645 25.2991 55.8831 21.04 57.2059C18.6688 57.9281 16.2333 58.4195 13.7675 58.6734C12.2277 58.8314 10.6741 58.7921 9.14429 58.5565C8.12912 58.4045 7.1381 58.1208 6.19633 57.7124C4.97913 57.1861 3.87632 56.4274 2.94968 55.4787C1.14877 53.5807 0.116745 51.0816 0.0536799 48.4659C-0.011253 47.1673 -0.0242396 45.8686 0.0536799 44.6998C0.144586 42.2973 0.36536 40.0247 0.664051 37.8039C1.28741 33.3625 2.09258 29.077 3.07956 24.8174C4.06654 20.5578 5.11846 16.441 6.27427 12.3113C7.43007 8.18156 8.67679 4.12973 10.1702 0L23.4036 4.57128Z" fill="#E58A7B"/>
</svg>
