<svg width="8" height="18" viewBox="0 0 8 18" fill="none" xmlns="http://www.w3.org/2000/svg">
<path d="M2.12744 0.00877178L6.38235 1.16441C6.50963 1.19982 6.62527 1.26828 6.71753 1.36285C6.80979 1.45742 6.87538 1.57472 6.90764 1.70284C8.10965 7.09995 7.88333 12.7172 6.25102 18.0002C5.64693 15.7676 3.62454 10.4228 0 7.94073C3.93972 5.22233 2.3507 1.71598 1.78601 0.389603C1.76765 0.340243 1.76313 0.286805 1.77294 0.235066C1.78276 0.183327 1.80652 0.13525 1.84167 0.0960392C1.87683 0.0568288 1.92204 0.0279821 1.97241 0.0125991C2.02277 -0.00278385 2.07638 -0.0041053 2.12744 0.00877178Z" fill="#407BFF"/>
</svg>
