<svg width="5" height="5" viewBox="0 0 5 5" fill="none" xmlns="http://www.w3.org/2000/svg">
<path d="M4.58254 4.42161C4.49823 4.42465 4.41507 4.40145 4.3445 4.35521C4.27394 4.30898 4.21945 4.242 4.18858 4.16349C3.85658 3.34805 3.33645 2.62269 2.67065 2.04661C2.00485 1.47052 1.21224 1.06004 0.357545 0.8487C0.246829 0.828728 0.14817 0.766607 0.0823008 0.675403C0.0164312 0.584199 -0.0115121 0.471014 0.00433778 0.359633C0.024233 0.246178 0.088345 0.145266 0.182589 0.0790406C0.276834 0.0128149 0.393499 -0.0133033 0.506983 0.00642572C1.50218 0.236972 2.427 0.704422 3.20279 1.36905C3.97858 2.03367 4.5824 2.87582 4.96292 3.82386C5.00895 3.92844 5.01195 4.04694 4.97127 4.15372C4.9306 4.26051 4.84952 4.34698 4.74557 4.39443L4.58254 4.42161Z" fill="#263238"/>
</svg>
