<svg width="9" height="4" viewBox="0 0 9 4" fill="none" xmlns="http://www.w3.org/2000/svg">
<path d="M4.86369 3.55664C3.29706 3.52196 1.73682 3.34542 0.202053 3.02919C0.151808 3.01638 0.106306 2.98943 0.0709278 2.95153C0.0355496 2.91362 0.0118045 2.86636 0.00249396 2.81536C-0.00508611 2.76288 0.0047182 2.70935 0.0304679 2.663C0.0562175 2.61665 0.0964566 2.58005 0.145017 2.55876C0.800785 2.21662 6.65993 -0.777102 8.44191 0.192293C8.59669 0.278002 8.72744 0.401263 8.8221 0.550733C8.91677 0.700203 8.97231 0.871045 8.98364 1.04761C9.02382 1.34464 8.99022 1.64702 8.88579 1.92798C8.78137 2.20894 8.60931 2.45984 8.38487 2.65852C7.34812 3.35116 6.10553 3.6681 4.86369 3.55664ZM1.02891 2.67279C2.93919 3.00067 6.73121 3.4711 8.04275 2.30213C8.20647 2.1491 8.3318 1.95962 8.40858 1.74909C8.48537 1.53855 8.51144 1.31287 8.48468 1.09037C8.48348 0.993644 8.45642 0.899018 8.40628 0.816289C8.35614 0.733561 8.28478 0.665765 8.19959 0.61995C7.03061 -0.00730566 3.09601 1.66063 1.02891 2.67279Z" fill="#407BFF"/>
</svg>
