<svg width="6" height="3" viewBox="0 0 6 3" fill="none" xmlns="http://www.w3.org/2000/svg">
<path d="M0.438151 2.52442C0.379857 2.52658 0.321816 2.51563 0.26832 2.49237C0.214824 2.46911 0.167243 2.43413 0.129064 2.39002C0.0883565 2.35228 0.0558797 2.30654 0.0336708 2.25567C0.0114619 2.20479 0 2.14988 0 2.09437C0 2.03886 0.0114619 1.98394 0.0336708 1.93307C0.0558797 1.88219 0.0883565 1.83645 0.129064 1.79871C0.852931 1.09137 1.73617 0.568345 2.70441 0.273664C3.67264 -0.0210166 4.69753 -0.0787195 5.69272 0.105434C5.79783 0.136791 5.88699 0.207135 5.94195 0.302065C5.99691 0.396995 6.01352 0.509343 5.98837 0.616114C5.9758 0.670315 5.95249 0.721433 5.91984 0.766484C5.88719 0.811534 5.84584 0.849595 5.79824 0.878405C5.75064 0.907215 5.69776 0.926206 5.6427 0.934243C5.58765 0.942279 5.53154 0.939202 5.47769 0.9252C4.61907 0.773481 3.73659 0.829749 2.9042 1.08929C2.0718 1.34883 1.31373 1.80408 0.693491 2.41691C0.621556 2.4783 0.532338 2.51587 0.438151 2.52442Z" fill="#263238"/>
</svg>
